<svg width="355" height="54" viewBox="0 0 355 54" fill="none" xmlns="http://www.w3.org/2000/svg">
<rect width="45.75" height="53.0472" rx="8" fill="#B2AEA3"/>
<path d="M26.5709 18.4633C27.7048 18.4643 28.8257 18.7034 29.8606 19.1651C30.8954 19.6268 31.821 20.3006 32.5769 21.1426L34.9434 19.017C33.4286 17.3387 31.4413 16.1543 29.2407 15.6183C27.0401 15.0823 24.7285 15.2197 22.6074 16.0124C20.4864 16.8052 18.6544 18.2165 17.3506 20.0622C16.0467 21.908 15.3316 24.1025 15.2984 26.3593C15.2652 28.6161 15.9156 30.8305 17.1647 32.7134C18.4138 34.5965 20.2035 36.0606 22.3004 36.9149C24.3972 37.7691 26.7038 37.9738 28.9192 37.5022C31.1346 37.0307 33.1559 35.9047 34.7193 34.2713L32.4066 32.0832C31.4853 33.0431 30.3396 33.7606 29.072 34.1715C27.8044 34.5825 26.4543 34.6741 25.1425 34.4381C23.8307 34.2022 22.5981 33.6461 21.5547 32.8195C20.5113 31.9929 19.6897 30.9216 19.1635 29.7013C18.6372 28.4811 18.4226 27.1499 18.5389 25.8269C18.6552 24.5038 19.0987 23.23 19.8297 22.1195C20.5609 21.009 21.5568 20.0962 22.7285 19.4629C23.9001 18.8295 25.2111 18.4953 26.5441 18.49L26.5709 18.4633Z" fill="#414042"/>
<path d="M15.8585 15.8076L13.5904 13.6132C11.8186 15.3057 10.4127 17.3175 9.45326 19.5331C8.49391 21.7486 8 24.1243 8 26.5236C8 28.9229 8.49391 31.2986 9.45326 33.5141C10.4127 35.7297 11.8186 37.7415 13.5904 39.434L15.8585 37.2396C14.3813 35.8384 13.2084 34.1697 12.4079 32.3302C11.6075 30.4907 11.1953 28.5171 11.1953 26.5236C11.1953 24.5301 11.6075 22.5565 12.4079 20.717C13.2084 18.8775 14.3813 17.2088 15.8585 15.8076Z" fill="#414042"/>
<path d="M37.75 11.6347C34.4948 9.26871 30.5613 7.99519 26.5236 8.00001V11.186C29.8552 11.183 33.1015 12.2296 35.7929 14.1745L37.75 11.6347Z" fill="#414042"/>
<path d="M26.5236 41.9041V45.0472C30.311 45.0512 34.0174 44.0051 37.1887 42.0369L35.3258 39.434C32.7052 41.05 29.6474 41.9082 26.5236 41.9041Z" fill="#414042"/>
<path d="M26.5236 38.0222C24.0929 38.0206 21.7215 37.2937 19.7302 35.9398C17.7389 34.586 16.2241 32.6705 15.3905 30.4529L12.4905 31.7609C13.5826 34.515 15.5079 36.8831 18.0129 38.5534C20.5179 40.2237 23.4851 41.1178 26.5236 41.1179V38.0222Z" fill="#414042"/>
<path d="M15.0261 25.9623C15.2143 23.0095 16.5073 20.2396 18.6425 18.2146C20.7777 16.1897 23.5953 15.0613 26.5236 15.0585V11.9293C22.7736 11.9291 19.1671 13.3859 16.4505 15.998C13.7338 18.6102 12.1151 22.1777 11.9293 25.9623H15.0261Z" fill="#414042"/>
<path d="M66.0674 37.8406C64.0597 37.8406 62.3372 37.513 60.9001 36.8579C59.4841 36.2027 58.3745 35.2411 57.5714 33.973C56.7895 32.705 56.3562 31.1305 56.2717 29.2495C56.2505 28.383 56.24 27.4531 56.24 26.4598C56.24 25.4665 56.2505 24.5154 56.2717 23.6066C56.3562 21.7679 56.8 20.2146 57.6031 18.9465C58.4062 17.6573 59.5264 16.6851 60.9635 16.03C62.4006 15.3537 64.1019 15.0155 66.0674 15.0155C67.4623 15.0155 68.7515 15.1952 69.935 15.5545C71.1185 15.8926 72.1541 16.3998 73.0418 17.0761C73.9294 17.7313 74.6163 18.5344 75.1024 19.4854C75.6096 20.4154 75.8738 21.4721 75.8949 22.6556C75.916 22.8458 75.8526 23.0043 75.7047 23.1311C75.5779 23.2579 75.4194 23.3213 75.2292 23.3213H70.9495C70.6747 23.3213 70.4634 23.2685 70.3154 23.1628C70.1675 23.036 70.0407 22.8141 69.935 22.4971C69.6391 21.377 69.153 20.6161 68.4767 20.2146C67.8216 19.7919 67.0079 19.5805 66.0357 19.5805C64.8733 19.5805 63.954 19.9081 63.2777 20.5633C62.6014 21.1973 62.2316 22.2646 62.1681 23.7651C62.1047 25.4982 62.1047 27.2734 62.1681 29.091C62.2316 30.5915 62.6014 31.6694 63.2777 32.3245C63.954 32.9586 64.8733 33.2756 66.0357 33.2756C67.0079 33.2756 67.8321 33.0642 68.5084 32.6416C69.1847 32.2189 69.6603 31.458 69.935 30.3591C70.0196 30.042 70.1358 29.8307 70.2837 29.725C70.4528 29.5982 70.6747 29.5348 70.9495 29.5348H75.2292C75.4194 29.5348 75.5779 29.5982 75.7047 29.725C75.8526 29.8518 75.916 30.0103 75.8949 30.2005C75.8738 31.3841 75.6096 32.4514 75.1024 33.4024C74.6163 34.3323 73.9294 35.1354 73.0418 35.8117C72.1541 36.4669 71.1185 36.9741 69.935 37.3334C68.7515 37.6715 67.4623 37.8406 66.0674 37.8406ZM86.6781 37.8406C84.9028 37.8406 83.4023 37.5553 82.1765 36.9847C80.9718 36.414 80.0419 35.6004 79.3868 34.5436C78.7527 33.4658 78.3935 32.1872 78.3089 30.7078C78.2878 30.2851 78.2772 29.8096 78.2772 29.2812C78.2772 28.7317 78.2878 28.2562 78.3089 27.8546C78.3935 26.3541 78.7739 25.0755 79.4502 24.0188C80.1265 22.962 81.0669 22.1484 82.2716 21.5777C83.4974 21.0071 84.9662 20.7218 86.6781 20.7218C88.4111 20.7218 89.88 21.0071 91.0846 21.5777C92.3104 22.1484 93.2615 22.962 93.9378 24.0188C94.6141 25.0755 94.9945 26.3541 95.079 27.8546C95.1001 28.2562 95.1107 28.7317 95.1107 29.2812C95.1107 29.8096 95.1001 30.2851 95.079 30.7078C94.9945 32.1872 94.6246 33.4658 93.9695 34.5436C93.3354 35.6004 92.4055 36.414 91.1797 36.9847C89.9751 37.5553 88.4745 37.8406 86.6781 37.8406ZM86.6781 33.973C87.6292 33.973 88.316 33.6877 88.7387 33.1171C89.1825 32.5465 89.4361 31.6905 89.4995 30.5493C89.5207 30.2322 89.5312 29.8096 89.5312 29.2812C89.5312 28.7528 89.5207 28.3302 89.4995 28.0131C89.4361 26.893 89.1825 26.0476 88.7387 25.477C88.316 24.8853 87.6292 24.5894 86.6781 24.5894C85.7482 24.5894 85.0613 24.8853 84.6175 25.477C84.1737 26.0476 83.9306 26.893 83.8884 28.0131C83.8672 28.3302 83.8567 28.7528 83.8567 29.2812C83.8567 29.8096 83.8672 30.2322 83.8884 30.5493C83.9306 31.6905 84.1737 32.5465 84.6175 33.1171C85.0613 33.6877 85.7482 33.973 86.6781 33.973ZM99.0211 37.5236C98.7887 37.5236 98.5984 37.4496 98.4505 37.3017C98.3026 37.1537 98.2286 36.9635 98.2286 36.7311V21.8314C98.2286 21.5989 98.3026 21.4087 98.4505 21.2607C98.5984 21.1128 98.7887 21.0388 99.0211 21.0388H102.667C102.899 21.0388 103.089 21.1128 103.237 21.2607C103.385 21.4087 103.459 21.5989 103.459 21.8314V23.036C104.009 22.3808 104.727 21.8314 105.615 21.3875C106.503 20.9437 107.549 20.7218 108.753 20.7218C109.979 20.7218 111.057 20.9965 111.987 21.546C112.938 22.0955 113.678 22.9092 114.206 23.9871C114.756 25.0438 115.03 26.3435 115.03 27.8863V36.7311C115.03 36.9635 114.946 37.1537 114.777 37.3017C114.629 37.4496 114.449 37.5236 114.238 37.5236H110.243C110.032 37.5236 109.842 37.4496 109.673 37.3017C109.525 37.1537 109.451 36.9635 109.451 36.7311V28.0765C109.451 27.0832 109.208 26.3224 108.722 25.794C108.257 25.2445 107.559 24.9698 106.629 24.9698C105.763 24.9698 105.066 25.2445 104.537 25.794C104.03 26.3224 103.776 27.0832 103.776 28.0765V36.7311C103.776 36.9635 103.692 37.1537 103.523 37.3017C103.375 37.4496 103.195 37.5236 102.984 37.5236H99.0211ZM125.352 37.8406C123.979 37.8406 122.806 37.6927 121.834 37.3968C120.883 37.0798 120.101 36.6994 119.488 36.2555C118.896 35.8117 118.452 35.3573 118.156 34.8924C117.86 34.4063 117.702 33.9942 117.681 33.656C117.66 33.4235 117.734 33.2333 117.903 33.0854C118.072 32.9163 118.251 32.8318 118.442 32.8318H122.055C122.119 32.8318 122.172 32.8423 122.214 32.8635C122.256 32.8846 122.32 32.9269 122.404 32.9903C122.679 33.1382 122.954 33.3284 123.228 33.5609C123.503 33.7722 123.82 33.9625 124.179 34.1315C124.539 34.3006 124.972 34.3851 125.479 34.3851C126.071 34.3851 126.568 34.2689 126.969 34.0364C127.371 33.8039 127.572 33.4552 127.572 32.9903C127.572 32.6521 127.476 32.3774 127.286 32.166C127.096 31.9336 126.705 31.7116 126.113 31.5003C125.543 31.289 124.676 31.0776 123.514 30.8663C122.415 30.6127 121.453 30.2851 120.629 29.8835C119.805 29.4608 119.171 28.9219 118.727 28.2668C118.283 27.5905 118.061 26.7768 118.061 25.8257C118.061 24.9804 118.336 24.1667 118.885 23.3847C119.435 22.6028 120.238 21.9687 121.295 21.4826C122.351 20.9754 123.651 20.7218 125.194 20.7218C126.42 20.7218 127.476 20.8697 128.364 21.1656C129.273 21.4404 130.034 21.7996 130.647 22.2435C131.281 22.6873 131.756 23.1417 132.073 23.6066C132.39 24.0716 132.559 24.4943 132.58 24.8747C132.602 25.086 132.538 25.2762 132.39 25.4453C132.242 25.5933 132.073 25.6672 131.883 25.6672H128.586C128.501 25.6672 128.417 25.6567 128.332 25.6355C128.248 25.5933 128.174 25.551 128.11 25.5087C127.857 25.3819 127.603 25.2128 127.35 25.0015C127.096 24.7902 126.8 24.5999 126.462 24.4309C126.124 24.2618 125.701 24.1773 125.194 24.1773C124.623 24.1773 124.179 24.3041 123.862 24.5577C123.545 24.8113 123.387 25.1389 123.387 25.5404C123.387 25.8152 123.471 26.0688 123.641 26.3013C123.831 26.5337 124.201 26.7451 124.75 26.9353C125.321 27.1255 126.198 27.3368 127.381 27.5693C128.84 27.8018 130.002 28.1822 130.869 28.7106C131.735 29.2178 132.348 29.8201 132.707 30.5176C133.066 31.1939 133.246 31.9124 133.246 32.6733C133.246 33.6877 132.94 34.5859 132.327 35.3679C131.735 36.1499 130.847 36.7628 129.664 37.2066C128.48 37.6293 127.043 37.8406 125.352 37.8406ZM143.667 37.8406C142.104 37.8406 140.719 37.5553 139.515 36.9847C138.31 36.414 137.348 35.5898 136.63 34.5119C135.932 33.413 135.552 32.1026 135.489 30.581C135.467 30.2428 135.457 29.8201 135.457 29.3129C135.457 28.7845 135.467 28.3513 135.489 28.0131C135.552 26.4703 135.932 25.16 136.63 24.0822C137.327 22.9832 138.278 22.1484 139.483 21.5777C140.709 21.0071 142.104 20.7218 143.667 20.7218C145.126 20.7218 146.373 20.9331 147.408 21.3558C148.444 21.7574 149.289 22.2646 149.944 22.8775C150.6 23.4904 151.086 24.1244 151.403 24.7796C151.741 25.4136 151.92 25.9737 151.942 26.4598C151.963 26.6711 151.889 26.8613 151.72 27.0304C151.551 27.1783 151.36 27.2523 151.149 27.2523H147.123C146.89 27.2523 146.711 27.1995 146.584 27.0938C146.457 26.9881 146.341 26.8296 146.235 26.6183C145.982 25.9631 145.654 25.4982 145.253 25.2234C144.872 24.9487 144.375 24.8113 143.763 24.8113C142.917 24.8113 142.262 25.086 141.797 25.6355C141.353 26.185 141.11 27.0304 141.068 28.1716C141.047 29.017 141.047 29.7673 141.068 30.4225C141.11 31.5848 141.353 32.4302 141.797 32.9586C142.262 33.4869 142.917 33.7511 143.763 33.7511C144.418 33.7511 144.936 33.6137 145.316 33.339C145.696 33.0642 146.003 32.5993 146.235 31.9441C146.341 31.7328 146.457 31.5743 146.584 31.4686C146.711 31.3629 146.89 31.3101 147.123 31.3101H151.149C151.36 31.3101 151.551 31.3946 151.72 31.5637C151.889 31.7116 151.963 31.8913 151.942 32.1026C151.92 32.4619 151.815 32.8846 151.625 33.3707C151.434 33.8356 151.138 34.3323 150.737 34.8607C150.335 35.389 149.807 35.8857 149.152 36.3506C148.518 36.7945 147.746 37.1537 146.838 37.4285C145.929 37.7032 144.872 37.8406 143.667 37.8406ZM155.582 37.5236C155.35 37.5236 155.16 37.4496 155.012 37.3017C154.864 37.1537 154.79 36.9635 154.79 36.7311V21.8314C154.79 21.5989 154.864 21.4087 155.012 21.2607C155.16 21.1128 155.35 21.0388 155.582 21.0388H159.323C159.534 21.0388 159.714 21.1128 159.862 21.2607C160.031 21.4087 160.116 21.5989 160.116 21.8314V36.7311C160.116 36.9635 160.031 37.1537 159.862 37.3017C159.714 37.4496 159.534 37.5236 159.323 37.5236H155.582ZM155.551 18.6612C155.318 18.6612 155.128 18.5872 154.98 18.4393C154.832 18.2914 154.758 18.1011 154.758 17.8687V15.0472C154.758 14.8148 154.832 14.6245 154.98 14.4766C155.128 14.3075 155.318 14.223 155.551 14.223H159.323C159.556 14.223 159.746 14.3075 159.894 14.4766C160.063 14.6245 160.147 14.8148 160.147 15.0472V17.8687C160.147 18.1011 160.063 18.2914 159.894 18.4393C159.746 18.5872 159.556 18.6612 159.323 18.6612H155.551ZM171.593 37.8406C169.099 37.8406 167.112 37.1643 165.633 35.8117C164.153 34.4591 163.382 32.4514 163.319 29.7884C163.319 29.6405 163.319 29.4503 163.319 29.2178C163.319 28.9853 163.319 28.8057 163.319 28.6789C163.382 27.0093 163.752 25.5827 164.428 24.3992C165.126 23.1945 166.077 22.2857 167.281 21.6728C168.507 21.0388 169.934 20.7218 171.561 20.7218C173.421 20.7218 174.953 21.0916 176.158 21.8314C177.384 22.5711 178.303 23.5749 178.916 24.843C179.529 26.1111 179.835 27.5588 179.835 29.1861V29.9469C179.835 30.1794 179.751 30.3696 179.582 30.5176C179.434 30.6655 179.254 30.7395 179.043 30.7395H168.898C168.898 30.7606 168.898 30.7923 168.898 30.8346C168.898 30.8768 168.898 30.9191 168.898 30.9614C168.919 31.5743 169.025 32.1343 169.215 32.6416C169.405 33.1488 169.701 33.5503 170.103 33.8462C170.504 34.1421 170.99 34.29 171.561 34.29C171.984 34.29 172.332 34.2266 172.607 34.0998C172.903 33.9519 173.146 33.7934 173.336 33.6243C173.527 33.4341 173.675 33.2756 173.78 33.1488C173.97 32.9374 174.118 32.8106 174.224 32.7684C174.351 32.705 174.541 32.6733 174.795 32.6733H178.726C178.937 32.6733 179.106 32.7367 179.233 32.8635C179.381 32.9691 179.444 33.1276 179.423 33.339C179.402 33.6983 179.222 34.1315 178.884 34.6388C178.546 35.146 178.049 35.6532 177.394 36.1604C176.76 36.6465 175.957 37.0481 174.985 37.3651C174.013 37.6821 172.882 37.8406 171.593 37.8406ZM168.898 27.601H174.256V27.5376C174.256 26.8613 174.15 26.2696 173.939 25.7623C173.748 25.2551 173.442 24.8641 173.019 24.5894C172.618 24.3146 172.132 24.1773 171.561 24.1773C170.99 24.1773 170.504 24.3146 170.103 24.5894C169.722 24.8641 169.427 25.2551 169.215 25.7623C169.004 26.2696 168.898 26.8613 168.898 27.5376V27.601ZM183.6 37.5236C183.367 37.5236 183.177 37.4496 183.029 37.3017C182.881 37.1537 182.807 36.9635 182.807 36.7311V21.8314C182.807 21.5989 182.881 21.4087 183.029 21.2607C183.177 21.1128 183.367 21.0388 183.6 21.0388H187.245C187.478 21.0388 187.668 21.1128 187.816 21.2607C187.964 21.4087 188.038 21.5989 188.038 21.8314V23.036C188.587 22.3808 189.306 21.8314 190.194 21.3875C191.081 20.9437 192.127 20.7218 193.332 20.7218C194.558 20.7218 195.636 20.9965 196.566 21.546C197.517 22.0955 198.256 22.9092 198.785 23.9871C199.334 25.0438 199.609 26.3435 199.609 27.8863V36.7311C199.609 36.9635 199.524 37.1537 199.355 37.3017C199.207 37.4496 199.028 37.5236 198.816 37.5236H194.822C194.611 37.5236 194.421 37.4496 194.251 37.3017C194.103 37.1537 194.03 36.9635 194.03 36.7311V28.0765C194.03 27.0832 193.786 26.3224 193.3 25.794C192.835 25.2445 192.138 24.9698 191.208 24.9698C190.342 24.9698 189.644 25.2445 189.116 25.794C188.609 26.3224 188.355 27.0832 188.355 28.0765V36.7311C188.355 36.9635 188.27 37.1537 188.101 37.3017C187.953 37.4496 187.774 37.5236 187.562 37.5236H183.6ZM210.724 37.8406C209.16 37.8406 207.775 37.5553 206.571 36.9847C205.366 36.414 204.404 35.5898 203.686 34.5119C202.988 33.413 202.608 32.1026 202.545 30.581C202.523 30.2428 202.513 29.8201 202.513 29.3129C202.513 28.7845 202.523 28.3513 202.545 28.0131C202.608 26.4703 202.988 25.16 203.686 24.0822C204.383 22.9832 205.334 22.1484 206.539 21.5777C207.765 21.0071 209.16 20.7218 210.724 20.7218C212.182 20.7218 213.429 20.9331 214.464 21.3558C215.5 21.7574 216.345 22.2646 217 22.8775C217.656 23.4904 218.142 24.1244 218.459 24.7796C218.797 25.4136 218.977 25.9737 218.998 26.4598C219.019 26.6711 218.945 26.8613 218.776 27.0304C218.607 27.1783 218.416 27.2523 218.205 27.2523H214.179C213.947 27.2523 213.767 27.1995 213.64 27.0938C213.513 26.9881 213.397 26.8296 213.291 26.6183C213.038 25.9631 212.71 25.4982 212.309 25.2234C211.928 24.9487 211.432 24.8113 210.819 24.8113C209.973 24.8113 209.318 25.086 208.853 25.6355C208.409 26.185 208.166 27.0304 208.124 28.1716C208.103 29.017 208.103 29.7673 208.124 30.4225C208.166 31.5848 208.409 32.4302 208.853 32.9586C209.318 33.4869 209.973 33.7511 210.819 33.7511C211.474 33.7511 211.992 33.6137 212.372 33.339C212.752 33.0642 213.059 32.5993 213.291 31.9441C213.397 31.7328 213.513 31.5743 213.64 31.4686C213.767 31.3629 213.947 31.3101 214.179 31.3101H218.205C218.416 31.3101 218.607 31.3946 218.776 31.5637C218.945 31.7116 219.019 31.8913 218.998 32.1026C218.977 32.4619 218.871 32.8846 218.681 33.3707C218.49 33.8356 218.195 34.3323 217.793 34.8607C217.391 35.389 216.863 35.8857 216.208 36.3506C215.574 36.7945 214.803 37.1537 213.894 37.4285C212.985 37.7032 211.928 37.8406 210.724 37.8406ZM229.454 37.8406C226.96 37.8406 224.974 37.1643 223.494 35.8117C222.015 34.4591 221.244 32.4514 221.18 29.7884C221.18 29.6405 221.18 29.4503 221.18 29.2178C221.18 28.9853 221.18 28.8057 221.18 28.6789C221.244 27.0093 221.613 25.5827 222.29 24.3992C222.987 23.1945 223.938 22.2857 225.143 21.6728C226.369 21.0388 227.795 20.7218 229.422 20.7218C231.282 20.7218 232.815 21.0916 234.019 21.8314C235.245 22.5711 236.164 23.5749 236.777 24.843C237.39 26.1111 237.697 27.5588 237.697 29.1861V29.9469C237.697 30.1794 237.612 30.3696 237.443 30.5176C237.295 30.6655 237.115 30.7395 236.904 30.7395H226.76C226.76 30.7606 226.76 30.7923 226.76 30.8346C226.76 30.8768 226.76 30.9191 226.76 30.9614C226.781 31.5743 226.886 32.1343 227.077 32.6416C227.267 33.1488 227.563 33.5503 227.964 33.8462C228.366 34.1421 228.852 34.29 229.422 34.29C229.845 34.29 230.194 34.2266 230.469 34.0998C230.765 33.9519 231.008 33.7934 231.198 33.6243C231.388 33.4341 231.536 33.2756 231.642 33.1488C231.832 32.9374 231.98 32.8106 232.085 32.7684C232.212 32.705 232.402 32.6733 232.656 32.6733H236.587C236.798 32.6733 236.967 32.7367 237.094 32.8635C237.242 32.9691 237.306 33.1276 237.284 33.339C237.263 33.6983 237.084 34.1315 236.746 34.6388C236.407 35.146 235.911 35.6532 235.256 36.1604C234.622 36.6465 233.818 37.0481 232.846 37.3651C231.874 37.6821 230.743 37.8406 229.454 37.8406ZM226.76 27.601H232.117V27.5376C232.117 26.8613 232.011 26.2696 231.8 25.7623C231.61 25.2551 231.303 24.8641 230.881 24.5894C230.479 24.3146 229.993 24.1773 229.422 24.1773C228.852 24.1773 228.366 24.3146 227.964 24.5894C227.584 24.8641 227.288 25.2551 227.077 25.7623C226.865 26.2696 226.76 26.8613 226.76 27.5376V27.601ZM248.559 37.5236C248.326 37.5236 248.136 37.4496 247.988 37.3017C247.84 37.1537 247.766 36.9635 247.766 36.7311V16.1251C247.766 15.8926 247.84 15.7024 247.988 15.5545C248.136 15.4065 248.326 15.3325 248.559 15.3325H252.648C252.881 15.3325 253.071 15.4065 253.219 15.5545C253.367 15.7024 253.441 15.8926 253.441 16.1251V23.7651H261.271V16.1251C261.271 15.8926 261.345 15.7024 261.493 15.5545C261.641 15.4065 261.831 15.3325 262.064 15.3325H266.153C266.386 15.3325 266.576 15.4065 266.724 15.5545C266.872 15.7024 266.946 15.8926 266.946 16.1251V36.7311C266.946 36.9635 266.872 37.1537 266.724 37.3017C266.576 37.4496 266.386 37.5236 266.153 37.5236H262.064C261.831 37.5236 261.641 37.4496 261.493 37.3017C261.345 37.1537 261.271 36.9635 261.271 36.7311V28.8374H253.441V36.7311C253.441 36.9635 253.367 37.1537 253.219 37.3017C253.071 37.4496 252.881 37.5236 252.648 37.5236H248.559ZM278.837 37.8406C277.062 37.8406 275.562 37.5553 274.336 36.9847C273.131 36.414 272.201 35.6004 271.546 34.5436C270.912 33.4658 270.553 32.1872 270.468 30.7078C270.447 30.2851 270.437 29.8096 270.437 29.2812C270.437 28.7317 270.447 28.2562 270.468 27.8546C270.553 26.3541 270.933 25.0755 271.61 24.0188C272.286 22.962 273.226 22.1484 274.431 21.5777C275.657 21.0071 277.126 20.7218 278.837 20.7218C280.57 20.7218 282.039 21.0071 283.244 21.5777C284.47 22.1484 285.421 22.962 286.097 24.0188C286.773 25.0755 287.154 26.3541 287.238 27.8546C287.259 28.2562 287.27 28.7317 287.27 29.2812C287.27 29.8096 287.259 30.2851 287.238 30.7078C287.154 32.1872 286.784 33.4658 286.129 34.5436C285.495 35.6004 284.565 36.414 283.339 36.9847C282.134 37.5553 280.634 37.8406 278.837 37.8406ZM278.837 33.973C279.788 33.973 280.475 33.6877 280.898 33.1171C281.342 32.5465 281.595 31.6905 281.659 30.5493C281.68 30.2322 281.691 29.8096 281.691 29.2812C281.691 28.7528 281.68 28.3302 281.659 28.0131C281.595 26.893 281.342 26.0476 280.898 25.477C280.475 24.8853 279.788 24.5894 278.837 24.5894C277.908 24.5894 277.221 24.8853 276.777 25.477C276.333 26.0476 276.09 26.893 276.048 28.0131C276.027 28.3302 276.016 28.7528 276.016 29.2812C276.016 29.8096 276.027 30.2322 276.048 30.5493C276.09 31.6905 276.333 32.5465 276.777 33.1171C277.221 33.6877 277.908 33.973 278.837 33.973ZM291.18 37.5236C290.948 37.5236 290.758 37.4496 290.61 37.3017C290.462 37.1537 290.388 36.9635 290.388 36.7311V21.8314C290.388 21.5989 290.462 21.4087 290.61 21.2607C290.758 21.1128 290.948 21.0388 291.18 21.0388H294.636C294.868 21.0388 295.059 21.1128 295.207 21.2607C295.355 21.4087 295.428 21.5989 295.428 21.8314V22.9092C295.851 22.3386 296.443 21.8419 297.204 21.4192C297.965 20.9754 298.863 20.7429 299.898 20.7218C302.329 20.6795 303.998 21.5989 304.907 23.4798C305.393 22.6767 306.091 22.0216 307 21.5143C307.908 20.986 308.902 20.7218 309.979 20.7218C311.078 20.7218 312.061 20.9754 312.928 21.4826C313.815 21.9687 314.523 22.7296 315.052 23.7651C315.58 24.7796 315.844 26.1005 315.844 27.7278V36.7311C315.844 36.9635 315.76 37.1537 315.591 37.3017C315.443 37.4496 315.263 37.5236 315.052 37.5236H311.374C311.142 37.5236 310.941 37.4496 310.772 37.3017C310.624 37.1537 310.55 36.9635 310.55 36.7311V27.9497C310.55 27.21 310.444 26.6288 310.233 26.2062C310.022 25.7623 309.736 25.4453 309.377 25.2551C309.018 25.0649 308.606 24.9698 308.141 24.9698C307.76 24.9698 307.38 25.0649 307 25.2551C306.64 25.4453 306.344 25.7623 306.112 26.2062C305.901 26.6288 305.795 27.21 305.795 27.9497V36.7311C305.795 36.9635 305.721 37.1537 305.573 37.3017C305.425 37.4496 305.235 37.5236 305.002 37.5236H301.325C301.092 37.5236 300.902 37.4496 300.754 37.3017C300.606 37.1537 300.532 36.9635 300.532 36.7311V27.9497C300.532 27.21 300.416 26.6288 300.184 26.2062C299.951 25.7623 299.655 25.4453 299.296 25.2551C298.937 25.0649 298.535 24.9698 298.091 24.9698C297.711 24.9698 297.331 25.0649 296.95 25.2551C296.591 25.4453 296.295 25.7623 296.063 26.2062C295.851 26.6288 295.745 27.1995 295.745 27.918V36.7311C295.745 36.9635 295.661 37.1537 295.492 37.3017C295.344 37.4496 295.154 37.5236 294.921 37.5236H291.18ZM327.004 37.8406C324.511 37.8406 322.524 37.1643 321.045 35.8117C319.565 34.4591 318.794 32.4514 318.73 29.7884C318.73 29.6405 318.73 29.4503 318.73 29.2178C318.73 28.9853 318.73 28.8057 318.73 28.6789C318.794 27.0093 319.164 25.5827 319.84 24.3992C320.537 23.1945 321.488 22.2857 322.693 21.6728C323.919 21.0388 325.345 20.7218 326.973 20.7218C328.833 20.7218 330.365 21.0916 331.569 21.8314C332.795 22.5711 333.715 23.5749 334.327 24.843C334.94 26.1111 335.247 27.5588 335.247 29.1861V29.9469C335.247 30.1794 335.162 30.3696 334.993 30.5176C334.845 30.6655 334.666 30.7395 334.454 30.7395H324.31C324.31 30.7606 324.31 30.7923 324.31 30.8346C324.31 30.8768 324.31 30.9191 324.31 30.9614C324.331 31.5743 324.437 32.1343 324.627 32.6416C324.817 33.1488 325.113 33.5503 325.514 33.8462C325.916 34.1421 326.402 34.29 326.973 34.29C327.395 34.29 327.744 34.2266 328.019 34.0998C328.315 33.9519 328.558 33.7934 328.748 33.6243C328.938 33.4341 329.086 33.2756 329.192 33.1488C329.382 32.9374 329.53 32.8106 329.636 32.7684C329.762 32.705 329.953 32.6733 330.206 32.6733H334.137C334.349 32.6733 334.518 32.7367 334.644 32.8635C334.792 32.9691 334.856 33.1276 334.835 33.339C334.814 33.6983 334.634 34.1315 334.296 34.6388C333.958 35.146 333.461 35.6532 332.806 36.1604C332.172 36.6465 331.369 37.0481 330.396 37.3651C329.424 37.6821 328.294 37.8406 327.004 37.8406ZM324.31 27.601H329.667V27.5376C329.667 26.8613 329.562 26.2696 329.35 25.7623C329.16 25.2551 328.854 24.8641 328.431 24.5894C328.029 24.3146 327.543 24.1773 326.973 24.1773C326.402 24.1773 325.916 24.3146 325.514 24.5894C325.134 24.8641 324.838 25.2551 324.627 25.7623C324.415 26.2696 324.31 26.8613 324.31 27.5376V27.601ZM345.003 37.8406C343.629 37.8406 342.456 37.6927 341.484 37.3968C340.533 37.0798 339.751 36.6994 339.138 36.2555C338.546 35.8117 338.103 35.3573 337.807 34.8924C337.511 34.4063 337.352 33.9942 337.331 33.656C337.31 33.4235 337.384 33.2333 337.553 33.0854C337.722 32.9163 337.902 32.8318 338.092 32.8318H341.706C341.769 32.8318 341.822 32.8423 341.864 32.8635C341.907 32.8846 341.97 32.9269 342.055 32.9903C342.329 33.1382 342.604 33.3284 342.879 33.5609C343.154 33.7722 343.471 33.9625 343.83 34.1315C344.189 34.3006 344.623 34.3851 345.13 34.3851C345.721 34.3851 346.218 34.2689 346.62 34.0364C347.021 33.8039 347.222 33.4552 347.222 32.9903C347.222 32.6521 347.127 32.3774 346.937 32.166C346.747 31.9336 346.356 31.7116 345.764 31.5003C345.193 31.289 344.327 31.0776 343.164 30.8663C342.065 30.6127 341.104 30.2851 340.279 29.8835C339.455 29.4608 338.821 28.9219 338.377 28.2668C337.933 27.5905 337.712 26.7768 337.712 25.8257C337.712 24.9804 337.986 24.1667 338.536 23.3847C339.085 22.6028 339.888 21.9687 340.945 21.4826C342.002 20.9754 343.302 20.7218 344.844 20.7218C346.07 20.7218 347.127 20.8697 348.015 21.1656C348.923 21.4404 349.684 21.7996 350.297 22.2435C350.931 22.6873 351.407 23.1417 351.724 23.6066C352.041 24.0716 352.21 24.4943 352.231 24.8747C352.252 25.086 352.189 25.2762 352.041 25.4453C351.893 25.5933 351.724 25.6672 351.533 25.6672H348.236C348.152 25.6672 348.067 25.6567 347.983 25.6355C347.898 25.5933 347.824 25.551 347.761 25.5087C347.507 25.3819 347.254 25.2128 347 25.0015C346.747 24.7902 346.451 24.5999 346.112 24.4309C345.774 24.2618 345.352 24.1773 344.844 24.1773C344.274 24.1773 343.83 24.3041 343.513 24.5577C343.196 24.8113 343.037 25.1389 343.037 25.5404C343.037 25.8152 343.122 26.0688 343.291 26.3013C343.481 26.5337 343.851 26.7451 344.401 26.9353C344.971 27.1255 345.848 27.3368 347.032 27.5693C348.49 27.8018 349.652 28.1822 350.519 28.7106C351.385 29.2178 351.998 29.8201 352.358 30.5176C352.717 31.1939 352.897 31.9124 352.897 32.6733C352.897 33.6877 352.59 34.5859 351.977 35.3679C351.385 36.1499 350.498 36.7628 349.314 37.2066C348.131 37.6293 346.694 37.8406 345.003 37.8406Z" fill="#414042"/>
</svg>
